# xmcd CD database file
#
# Track frame offsets:
#	150
#	17989
#	40241
#	60909
#	71111
#	90457
#	113061
#	135042
#	175034
#	192442
#	214473
#	224736
#	242404
#	257090
#	277738
#
# Disc length: 4229 seconds
#
# Revision: 0
# Processed by: cddbd v1.5.2PL0 Copyright (c) Steve Scherf et al.
# Submitted via: CDex 1.77
#
DISCID=d310830f
DTITLE=Time In Space - CD 2
DYEAR=1978
DGENRE=Jazz
TTITLE0=You are my life (fun)
TTITLE1=Sunday is here again
TTITLE2=Portrait of an obstinate lady
TTITLE3=Birds
TTITLE4=The music is gonna take you high (Devices)
TTITLE5=Pleasure
TTITLE6=Don't change horses
TTITLE7=The greenies are coming
TTITLE8=You are my life (fun) (Playback)
TTITLE9=Sunday is here again (Playback)
TTITLE10=Birds (Playback)
TTITLE11=The music is gonna take you high (Devices) (Playback)
TTITLE12=Peasure (Playback)
TTITLE13=Don't change horses (Playback)
TTITLE14=The greenies are coming (Playback)
EXTD=YEAR: 1978
EXTT0=
EXTT1=
EXTT2=
EXTT3=
EXTT4=
EXTT5=
EXTT6=
EXTT7=
EXTT8=
EXTT9=
EXTT10=
EXTT11=
EXTT12=
EXTT13=
EXTT14=
PLAYORDER=
